# xmcd
#
# Track frame offsets: 
#        150
#        4676
#        17204
#        34466
#        49033
#        59836
#        72292
#        93001
#        110249
#        122060
#
# Disc length: 1836 seconds
#
# Revision: 0
# Processed by: cddbd v1.5.2PL0 Copyright (c) Steve Scherf et al.
# Submitted via: ExactAudioCopy v1.3
#
DISCID=8b072a0a
DTITLE=Samantha Phillips - Cameras In The Sky
DYEAR=2011
DGENRE=Country
TTITLE0=Tell Me
TTITLE1=Broken Circle
TTITLE2=Happy Mediums
TTITLE3=Leap Toward the Earth
TTITLE4=Throw Yourself Away
TTITLE5=Little White Feet
TTITLE6=Hide Space
TTITLE7=Cameras In The Sky
TTITLE8=When I'm A Camera
TTITLE9=So Glad You're Here
EXTD=
EXTT0=
EXTT1=
EXTT2=
EXTT3=
EXTT4=
EXTT5=
EXTT6=
EXTT7=
EXTT8=
EXTT9=
PLAYORDER=
